<?xml version="1.0" encoding="UTF-8"?>
<svg width="24px" height="24px" viewBox="0 0 24 24" version="1.1" xmlns="http://www.w3.org/2000/svg" xmlns:xlink="http://www.w3.org/1999/xlink">
    <title>disconnect-selected</title>
    <defs>
        <linearGradient x1="0.464527027%" y1="50%" x2="100%" y2="50%" id="linearGradient-1">
            <stop stop-color="#0092FF" offset="0%"></stop>
            <stop stop-color="#37BBFF" offset="100%"></stop>
        </linearGradient>
    </defs>
    <g id="Page-1" stroke="none" stroke-width="1" fill="none" fill-rule="evenodd">
        <g id="qt5-icon" transform="translate(-182.000000, -283.000000)" fill="url(#linearGradient-1)" fill-rule="nonzero">
            <g id="disconnect-selected" transform="translate(182.000000, 283.000000)">
                <path d="M6.33173075,18.3317308 L2.63942306,22.0240385 C2.54326921,22.110577 2.43269229,22.1538462 2.3076923,22.1538462 C2.19230768,22.1538462 2.08173076,22.110577 1.97596153,22.0240385 C1.88942307,21.9278846 1.84615384,21.8173077 1.84615384,21.6923077 C1.84615384,21.5673077 1.88942307,21.4567308 1.97596153,21.360577 L5.66826922,17.6682693 C5.76442307,17.5817308 5.87499999,17.5384616 5.99999999,17.5384616 C6.12499998,17.5384616 6.2355769,17.5817308 6.33173075,17.6682693 C6.41826921,17.7644231 6.46153844,17.875 6.46153844,18 C6.46153844,18.125 6.41826921,18.235577 6.33173075,18.3317308 Z M8.76923077,18.9230769 L8.76923077,23.5384616 C8.76923077,23.673077 8.72596154,23.7836539 8.63942308,23.8701923 C8.55288462,23.9567308 8.4423077,24 8.30769231,24 C8.17307693,24 8.0625,23.9567308 7.97596155,23.8701923 C7.88942309,23.7836539 7.84615386,23.673077 7.84615386,23.5384616 L7.84615386,18.9230769 C7.84615386,18.7884616 7.88942309,18.6778846 7.97596155,18.5913462 C8.0625,18.5048077 8.17307693,18.4615385 8.30769231,18.4615385 C8.4423077,18.4615385 8.55288462,18.5048077 8.63942308,18.5913462 C8.72596154,18.6778846 8.76923077,18.7884616 8.76923077,18.9230769 Z M5.53846153,15.6923077 C5.53846153,15.8269231 5.4951923,15.9375 5.40865384,16.0240385 C5.32211538,16.1105769 5.21153846,16.1538462 5.07692308,16.1538462 L0.461538455,16.1538462 C0.32692307,16.1538462 0.216346148,16.1105769 0.129807689,16.0240385 C0.0432692296,15.9375 0,15.8269231 0,15.6923077 C0,15.5576923 0.0432692296,15.4471154 0.129807689,15.3605769 C0.216346148,15.2740385 0.32692307,15.2307693 0.461538455,15.2307693 L5.07692308,15.2307693 C5.21153846,15.2307693 5.32211538,15.2740385 5.40865384,15.3605769 C5.4951923,15.4471154 5.53846153,15.5576923 5.53846153,15.6923077 Z M23.7692308,17.5384616 C23.7692308,18.6923077 23.3605769,19.6682693 22.5432692,20.4663462 L20.4230769,22.5721154 C19.625,23.3701923 18.6490385,23.7692308 17.4951923,23.7692308 C16.3317308,23.7692308 15.3509615,23.3605769 14.5528846,22.5432692 L9.73557689,17.7115385 C9.53365381,17.5096154 9.33173073,17.2403846 9.12980766,16.9038462 L12.5769231,16.6442308 L16.5144231,20.5961539 C16.7740384,20.8557692 17.1009615,20.9879808 17.4951923,20.9927885 C17.8894231,20.9975962 18.2163462,20.8701923 18.4759615,20.610577 L20.5961538,18.5048077 C20.8653846,18.235577 21,17.9134616 21,17.5384616 C21,17.1538462 20.8653846,16.8269231 20.5961538,16.5576923 L16.6442307,12.5913462 L16.9038461,9.1442308 C17.2403846,9.34615387 17.5096154,9.54807695 17.7115384,9.75000003 L22.5576923,14.5961539 C23.3653846,15.423077 23.7692308,16.4038462 23.7692308,17.5384616 L23.7692308,17.5384616 Z M14.8701923,7.09615385 L11.4230769,7.35576923 L7.48557689,3.40384614 C7.21634612,3.13461537 6.88942304,2.99999998 6.50480765,2.99999998 C6.12980766,2.99999998 5.80288458,3.12980767 5.52403842,3.38942305 L3.40384611,5.49519227 C3.13461534,5.76442304 2.99999996,6.08653842 2.99999996,6.46153842 C2.99999996,6.8461538 3.13461534,7.17307688 3.40384611,7.44230765 L7.3557692,11.3942307 L7.09615382,14.8557692 C6.75961536,14.6538461 6.49038459,14.4519231 6.28846152,14.25 L1.44230766,9.40384612 C0.634615356,8.57692305 0.230769202,7.59615381 0.230769202,6.46153842 C0.230769202,5.30769225 0.639423052,4.33173072 1.45673075,3.5336538 L3.57692306,1.42788458 C4.37499998,0.62980766 5.35096152,0.230769202 6.50480768,0.230769202 C7.66826922,0.230769202 8.64903845,0.639423052 9.44711539,1.45673075 L14.2644231,6.28846152 C14.4663462,6.49038459 14.6682692,6.75961536 14.8701923,7.09615382 L14.8701923,7.09615385 Z M24,8.30769231 C24,8.4423077 23.9567308,8.55288462 23.8701923,8.63942308 C23.7836539,8.72596154 23.6730769,8.76923077 23.5384615,8.76923077 L18.9230769,8.76923077 C18.7884615,8.76923077 18.6778846,8.72596154 18.5913462,8.63942308 C18.5048077,8.55288462 18.4615385,8.4423077 18.4615385,8.30769231 C18.4615385,8.17307693 18.5048077,8.0625 18.5913462,7.97596155 C18.6778846,7.88942309 18.7884615,7.84615386 18.9230769,7.84615386 L23.5384615,7.84615386 C23.6730769,7.84615386 23.7836539,7.88942309 23.8701923,7.97596155 C23.9567308,8.0625 24,8.17307693 24,8.30769231 L24,8.30769231 Z M16.1538461,0.461538455 L16.1538461,5.07692308 C16.1538461,5.21153846 16.1105769,5.32211538 16.0240385,5.40865384 C15.9375,5.4951923 15.8269231,5.53846153 15.6923077,5.53846153 C15.5576923,5.53846153 15.4471154,5.4951923 15.3605769,5.40865384 C15.2740385,5.32211538 15.2307692,5.21153846 15.2307692,5.07692308 L15.2307692,0.461538455 C15.2307692,0.32692307 15.2740385,0.216346148 15.3605769,0.129807689 C15.4471154,0.0432692296 15.5576923,1.0658141e-14 15.6923077,1.0658141e-14 C15.8269231,1.0658141e-14 15.9375,0.0432692296 16.0240385,0.129807689 C16.1105769,0.216346148 16.1538461,0.32692307 16.1538461,0.461538455 Z M22.0240385,2.63942306 L18.3317308,6.33173075 C18.2259616,6.41826921 18.1153846,6.46153844 18,6.46153844 C17.8846154,6.46153844 17.7740385,6.41826921 17.6682692,6.33173075 C17.5817308,6.2355769 17.5384616,6.12499998 17.5384616,5.99999999 C17.5384616,5.87499999 17.5817308,5.76442307 17.6682692,5.66826922 L21.3605769,1.97596153 C21.4567308,1.88942307 21.5673077,1.84615384 21.6923077,1.84615384 C21.8173077,1.84615384 21.9278846,1.88942307 22.0240385,1.97596153 C22.1105769,2.07211538 22.1538462,2.18269231 22.1538462,2.3076923 C22.1538462,2.43269229 22.1105769,2.54326921 22.0240385,2.63942306 Z"></path>
            </g>
        </g>
    </g>
</svg>