<?xml version="1.0" encoding="UTF-8"?>
<svg width="24px" height="24px" viewBox="0 0 24 24" version="1.1" xmlns="http://www.w3.org/2000/svg" xmlns:xlink="http://www.w3.org/1999/xlink">
    <title>connect-selected</title>
    <defs>
        <linearGradient x1="0.464527027%" y1="50%" x2="100%" y2="50%" id="linearGradient-1">
            <stop stop-color="#0092FF" offset="0%"></stop>
            <stop stop-color="#37BBFF" offset="100%"></stop>
        </linearGradient>
    </defs>
    <g id="Page-1" stroke="none" stroke-width="1" fill="none" fill-rule="evenodd">
        <g id="qt5-icon" transform="translate(-94.000000, -283.000000)" fill="url(#linearGradient-1)" fill-rule="nonzero">
            <g id="connect-selected" transform="translate(94.000000, 283.000000)">
                <path d="M21.1764706,17.6470588 C21.1764706,17.254902 21.0392157,16.9215686 20.7647059,16.6470588 L17.7058824,13.5882353 C17.4313726,13.3137255 17.0980392,13.1764706 16.7058824,13.1764706 C16.2941177,13.1764706 15.9411765,13.3333333 15.6470589,13.6470588 C15.6764706,13.6764706 15.7696079,13.7671569 15.9264706,13.9191177 C16.0833334,14.0710784 16.1887255,14.1764706 16.2426471,14.2352941 C16.2965686,14.2941176 16.3700981,14.3872549 16.4632353,14.5147059 C16.5563726,14.6421569 16.6200981,14.7671569 16.6544118,14.8897059 C16.6887255,15.0122549 16.7058824,15.1470588 16.7058824,15.2941177 C16.7058824,15.6862745 16.5686275,16.0196079 16.2941177,16.2941177 C16.0196079,16.5686275 15.6862745,16.7058824 15.2941177,16.7058824 C15.1470588,16.7058824 15.0122549,16.6887255 14.8897059,16.6544118 C14.7671569,16.6200981 14.6421569,16.5563726 14.5147059,16.4632353 C14.3872549,16.3700981 14.2941176,16.2965687 14.2352941,16.2426471 C14.1764706,16.1887255 14.0710784,16.0833334 13.9191177,15.9264706 C13.7671569,15.7696079 13.6764706,15.6764706 13.6470588,15.6470589 C13.3235294,15.9509804 13.1617647,16.3088236 13.1617647,16.7205883 C13.1617647,17.1127451 13.2990196,17.4460785 13.5735294,17.7205883 L16.6029412,20.7647059 C16.867647,21.0294118 17.2009804,21.1617647 17.6029412,21.1617647 C17.995098,21.1617647 18.3284314,21.0343138 18.6029412,20.7794118 L20.7647059,18.632353 C21.0392157,18.3578432 21.1764706,18.0294118 21.1764706,17.6470589 L21.1764706,17.6470588 Z M10.8382354,7.27941177 C10.8382354,6.88725491 10.7009804,6.55392157 10.4264706,6.27941177 L7.39705885,3.23529413 C7.12254905,2.96078432 6.78921572,2.82352942 6.39705885,2.82352942 C6.01470591,2.82352942 5.68137258,2.95588236 5.39705885,3.22058823 L3.23529415,5.36764705 C2.96078434,5.64215685 2.82352944,5.97058822 2.82352944,6.35294116 C2.82352944,6.74509802 2.96078434,7.07843136 3.23529415,7.35294116 L6.29411767,10.4117647 C6.55882355,10.6764706 6.89215688,10.8088235 7.29411768,10.8088235 C7.70588238,10.8088235 8.05882356,10.6568627 8.3529412,10.3529411 C8.32352944,10.3235294 8.23039217,10.2328431 8.07352943,10.0808823 C7.91666669,9.92892153 7.81127454,9.82352942 7.75735297,9.76470585 C7.7034314,9.70588233 7.62990199,9.61274507 7.53676472,9.48529408 C7.44362746,9.35784309 7.37990197,9.23284309 7.34558826,9.11029407 C7.31127456,8.98774505 7.29411769,8.85294113 7.29411768,8.7058823 C7.29411768,8.31372543 7.43137258,7.9803921 7.70588238,7.7058823 C7.98039219,7.43137249 8.31372552,7.29411759 8.70588238,7.29411759 C8.85294121,7.29411759 8.98774514,7.31127445 9.11029416,7.34558818 C9.23284317,7.3799019 9.35784318,7.44362739 9.48529417,7.53676464 C9.61274516,7.62990188 9.70588241,7.7034313 9.76470593,7.75735288 C9.82352944,7.81127447 9.92892161,7.91666662 10.0808824,8.07352935 C10.2328432,8.23039207 10.3235294,8.32352942 10.3529412,8.35294112 C10.6764706,8.04901954 10.8382354,7.6911764 10.8382354,7.2794117 L10.8382354,7.27941177 Z M24,17.6470588 C24,18.8235294 23.5833333,19.8186275 22.75,20.632353 L20.5882353,22.7794118 C19.7745098,23.5931373 18.7794118,24 17.6029412,24 C16.4166667,24 15.4166667,23.5833333 14.6029412,22.75 L11.5735294,19.7058823 C10.7598039,18.8921569 10.3529412,17.8970588 10.3529412,16.7205882 C10.3529412,15.5147059 10.7843137,14.4901961 11.6470588,13.6470588 L10.3529412,12.3529412 C9.50980393,13.2156863 8.49019609,13.6470588 7.29411765,13.6470588 C6.11764706,13.6470588 5.11764705,13.2352941 4.29411764,12.4117647 L1.23529412,9.35294117 C0.411764705,8.52941176 0,7.52941175 0,6.35294116 C0,5.17647056 0.41666667,4.18137252 1.25000001,3.36764704 L3.41176471,1.22058823 C4.22549019,0.406862742 5.22058823,0 6.39705882,0 C7.58333333,0 8.58333333,0.416666671 9.39705883,1.25000001 L12.4264706,4.29411765 C13.2401961,5.10784314 13.6470588,6.10294118 13.6470588,7.27941177 C13.6470588,8.48529412 13.2156863,9.50980392 12.3529412,10.3529412 L13.6470588,11.6470588 C14.4901961,10.7843137 15.5098039,10.3529412 16.7058823,10.3529412 C17.8823529,10.3529412 18.8823529,10.7647059 19.7058824,11.5882353 L22.7647059,14.6470588 C23.5882353,15.4705882 24,16.4705882 24,17.6470588 Z"></path>
            </g>
        </g>
    </g>
</svg>